<svg width="1000" height="700" viewBox="0 0 1000 700" fill="none" xmlns="http://www.w3.org/2000/svg">
  <rect width="1000" height="700" rx="32" fill="#F7FBFE"/>
  <rect x="84" y="76" width="832" height="548" rx="28" fill="white"/>
  <rect x="142" y="136" width="716" height="408" rx="24" fill="#EEF6FD"/>
  <rect x="206" y="204" width="588" height="18" rx="9" fill="#D4E6F7"/>
  <rect x="206" y="246" width="530" height="18" rx="9" fill="#D4E6F7"/>
  <rect x="206" y="288" width="564" height="18" rx="9" fill="#D4E6F7"/>
  <rect x="206" y="330" width="482" height="18" rx="9" fill="#D4E6F7"/>
  <rect x="206" y="414" width="218" height="50" rx="18" fill="#1A64A6"/>
  <path d="M730 486C770 450 770 390 730 354C690 318 628 318 588 354L550 392L512 354C472 318 410 318 370 354C330 390 330 450 370 486L550 644L730 486Z" fill="#23B7C5" fill-opacity="0.18"/>
  <path d="M730 446C758 418 758 374 730 346C702 318 658 318 630 346L550 426L470 346C442 318 398 318 370 346C342 374 342 418 370 446L550 626L730 446Z" fill="url(#paint0_linear_1_6)"/>
  <defs>
    <linearGradient id="paint0_linear_1_6" x1="370" y1="336" x2="738" y2="608" gradientUnits="userSpaceOnUse">
      <stop stop-color="#1A64A6"/>
      <stop offset="1" stop-color="#23B7C5"/>
    </linearGradient>
  </defs>
</svg>
