<svg width="1200" height="760" viewBox="0 0 1200 760" fill="none" xmlns="http://www.w3.org/2000/svg">
  <rect width="1200" height="760" rx="36" fill="#EEF6FD"/>
  <rect x="104" y="92" width="992" height="576" rx="30" fill="white"/>
  <rect x="160" y="150" width="220" height="34" rx="17" fill="#1A64A6"/>
  <rect x="160" y="210" width="360" height="22" rx="11" fill="#D8E9F8"/>
  <rect x="160" y="248" width="318" height="22" rx="11" fill="#D8E9F8"/>
  <rect x="160" y="286" width="280" height="22" rx="11" fill="#D8E9F8"/>
  <rect x="640" y="170" width="340" height="280" rx="28" fill="url(#paint0_linear_1_5)"/>
  <rect x="690" y="222" width="240" height="16" rx="8" fill="white" fill-opacity="0.4"/>
  <rect x="690" y="258" width="186" height="16" rx="8" fill="white" fill-opacity="0.4"/>
  <circle cx="742" cy="356" r="34" fill="white" fill-opacity="0.88"/>
  <path d="M730 340L758 356L730 372V340Z" fill="#1A64A6"/>
  <rect x="160" y="516" width="820" height="76" rx="24" fill="#F7FBFF" stroke="#D7E7F5"/>
  <defs>
    <linearGradient id="paint0_linear_1_5" x1="640" y1="170" x2="980" y2="450" gradientUnits="userSpaceOnUse">
      <stop stop-color="#1A64A6"/>
      <stop offset="1" stop-color="#23B7C5"/>
    </linearGradient>
  </defs>
</svg>
